<?xml version="1.0" encoding="utf-8"?>
<!-- Generator: Adobe Illustrator 22.0.1, SVG Export Plug-In . SVG Version: 6.00 Build 0)  -->
<svg version="1.1" id="Layer_1" xmlns="http://www.w3.org/2000/svg" xmlns:xlink="http://www.w3.org/1999/xlink" x="0px" y="0px"
	 width="300.1px" height="58.15px" viewBox="0 0 300.1 58.15" enable-background="new 0 0 300.1 58.15" xml:space="preserve">
<path fill="#C8102E" d="M0.05,56.74v-1.11c2.67-0.08,4.49-0.59,5.45-1.54s1.44-3.18,1.44-6.7V2.64H0.39V1.41h20.45l13.91,37.98
	L48.29,1.41h19.43v1.24h-6.42v52.95h6.42v1.15H42.39v-1.15h6.55V4.55L30.63,56.74h-2.59L8.79,3.05v44.34c0,3.55,0.47,5.78,1.4,6.7
	c0.94,0.92,2.77,1.43,5.51,1.54v1.11H0.05z M115.63,55.51L94.41,0.05h-1.05L76.68,47.09c-1.17,3.31-2.36,5.51-3.57,6.61
	c-1.22,1.1-2.99,1.7-5.32,1.81v1.24h14.7v-1.24c-3.64-0.5-5.39-1.09-5.39-3.05c0-1.48,0.46-3.07,0.93-4.35l3.41-9.15h15.13
	l5.91,16.55h-6.4v1.24h24.7v-1.24H115.63z M81.84,37.72l7.12-20.17l7.12,20.17H81.84z M173.83,54.37c-0.77,0.39-1.79,0.81-2.54,0.81
	c-2.58,0-4-2.99-4.27-8.96c-0.08-1.41-0.15-2.49-0.2-3.24c-0.27-4.78-1.69-8.41-4.25-10.89c-2.56-2.47-6.42-3.94-11.57-4.4v-0.4
	c5.75-0.81,9.97-2.25,12.65-4.33c2.69-2.08,4.03-4.95,4.03-8.63c0-4.24-1.82-7.45-5.46-9.64c-3.64-2.19-8.98-3.28-16.02-3.28h-25.58
	v1.24h6.55v52.87h-6.55v1.24h26.19v-1.24h-7.29V28.17c0.65,0,1.51-0.08,2.14-0.08c4.5,0,7.68,0.87,9.55,2.6
	c1.87,1.73,2.95,4.88,3.25,9.45c0.05,0.78,0.09,1.87,0.12,3.24c0.19,5.33,1.01,8.96,2.46,10.91c2.02,2.65,4.81,3.81,7.92,3.81
	c3.35,0,6.53-0.93,9.38-2.84L173.83,54.37z M139.52,26.98V2.64h3.89c4.33,0,7.36,0.87,9.09,2.6c1.72,1.73,2.59,4.8,2.59,9.21
	c0,4.35-0.88,7.53-2.65,9.53c-1.76,2-4.56,3-8.38,3H139.52z M203.48,1.41v1.24h-6.42v52.87h6.42v1.24h-25.32v-1.24h6.55V2.64h-6.55
	V1.41H203.48z M242.93,27.82c-2.48-2.72-6.88-4.8-13.21-6.24c-0.89-0.22-2.15-0.49-3.78-0.81c-3.49-0.7-5.82-1.41-6.98-2.11
	c-2.76-1.74-4.05-3.93-4.05-7.11c0-2.91,1.02-5.31,3.06-7.19c2.04-1.89,4.65-2.83,7.82-2.83c3.87,0,7.21,1.54,10.01,4.61
	c2.8,3.07,4.77,7.38,5.91,12.93h1.24V1.93h-1.24c-0.24,1.15-0.55,1.95-0.91,2.39c-0.36,0.44-0.9,0.66-1.6,0.66
	c-1.82,0-4.76-2.13-6.12-2.81c-2.7-1.33-5.53-2.13-8.55-2.13c-4.76,0-8.74,1.63-11.96,4.9c-3.22,3.27-4.82,7.3-4.82,12.09
	c0,4.58,1.21,8.23,3.64,10.94c2.43,2.71,6.33,4.76,11.7,6.14c1.02,0.27,2.5,0.61,4.41,1.02c3.45,0.73,5.73,1.45,6.84,2.15
	c3.62,2.2,4.91,4.86,4.91,8.92c0,3.04-1.03,5.58-3.08,7.61c-2.05,2.03-4.62,3.05-7.69,3.05c-4.4,0-8.33-1.84-11.78-5.53
	c-3.46-3.69-5.89-8.68-7.29-14.97h-1.25l0.32,20.58l1.25,0.08c0.05-1.11,0.3-1.93,0.73-2.46c0.43-0.53,1.08-0.79,1.95-0.79
	c0.14,0,1.98,0.72,5.53,2.16c3.56,1.44,7.13,2.16,10.73,2.16c5.4,0,9.76-1.66,13.05-4.99c3.3-3.33,4.95-7.75,4.95-13.24
	C246.64,34.56,245.4,30.55,242.93,27.82z M262.5,56.74v-1.24h6.92V2.64h-1.41c-4.68,0-8.38,1.36-11.11,4.09
	c-2.73,2.72-4.29,6.63-4.66,11.72h-1.22l0.49-17.05h48.07l0.48,17.05h-1.25c-0.38-5.09-1.92-9-4.63-11.72
	c-2.71-2.72-6.41-4.09-11.1-4.09h-1.42v52.87h6.92v1.24H262.5z"/>
</svg>
